# xmcd
#
# Track frame offsets:
#	150
#	10130
#	21012
#	33767
#	43030
#	53045
#	65355
#	77337
#	89750
#	99502
#	111412
#	122812
#	132690
#	140992
#	151172
#	163032
#	172417
#	182040
#	191584
#	203275
#	212722
#	222480
#	232710
#	246230
#	255122
#	264032
#	272122
#	282950
#	295417
#
# Disc length: 4171 seconds
# Revision: 8
# Processed by: cddbd v1.5.2PL0 Copyright (c) Steve Scherf et al.
# Submitted via: dBpowerAMP V12.0
#
DISCID=a310491d
DTITLE=Johnny Cash - The Essential Johnny Cash 1955-1983, Disc 1
DYEAR=1992
DGENRE=Country
TTITLE0=Hey Porter
TTITLE1=Cry Cry Cry
TTITLE2=Folsom Prison Blues
TTITLE3=Luther Played the Boogie
TTITLE4=Get Rhythm
TTITLE5=I Walk the Line
TTITLE6=Home of the Blues
TTITLE7=Give My Love to Rose
TTITLE8=Rock Island Line
TTITLE9=Doin' My Time
TTITLE10=Big River
TTITLE11=Ballad of a Teenage Queen
TTITLE12=Guess Things Happen That Way
TTITLE13=The Ways of a Woman in Love
TTITLE14=Thanks a Lot
TTITLE15=Oh, What a Dream
TTITLE16=What Do I Care
TTITLE17=All over Again
TTITLE18=I Still Miss Someone
TTITLE19=I'd Just Be Fool Enough (To Fall)
TTITLE20=Walking the Blues
TTITLE21=Frankie's Man Johnny
TTITLE22=Tennessee Flat Top Box
TTITLE23=Sing It Pretty, Sue
TTITLE24=Pickin' Time
TTITLE25=Five Feet High and Rising
TTITLE26=The Old Account
TTITLE27=Peace in the Valley
TTITLE28=Were You There When They Crucified My Lord?
EXTD=
EXTT0=
EXTT1=
EXTT2=
EXTT3=
EXTT4=
EXTT5=
EXTT6=
EXTT7=
EXTT8=
EXTT9=
EXTT10=
EXTT11=
EXTT12=
EXTT13=
EXTT14=
EXTT15=
EXTT16=
EXTT17=
EXTT18=
EXTT19=
EXTT20=
EXTT21=
EXTT22=
EXTT23=
EXTT24=
EXTT25=
EXTT26=
EXTT27=
EXTT28=
PLAYORDER=
